<?xml version="1.0" encoding="UTF-8" standalone="no"?>
<svg width="44px" height="44px" viewBox="0 0 44 44" version="1.1" xmlns="http://www.w3.org/2000/svg" xmlns:xlink="http://www.w3.org/1999/xlink">
    <!-- Generator: Sketch 39.1 (31720) - http://www.bohemiancoding.com/sketch -->
    <title>Page 1</title>
    <desc>Created with Sketch.</desc>
    <defs/>
    <g id="Homepage" stroke="none" stroke-width="1" fill="none" fill-rule="evenodd">
        <g id="Desktop-HD" transform="translate(-1064.000000, -815.000000)" fill="#eee">
            <path d="M1069.293,852.2954 C1069.112,852.4764 1069,852.7274 1069,853.0024 C1069,853.5554 1069.448,854.0024 1070,854.0024 C1070.552,854.0024 1071,853.5554 1071,853.0024 C1071,852.4504 1070.552,852.0024 1070,852.0024 C1069.724,852.0024 1069.474,852.1144 1069.293,852.2954 M1106.385,823.7164 L1105.543,824.5584 L1105.535,824.5504 L1100.535,829.5504 L1100.524,829.5394 C1099.621,830.4424 1098.374,830.9984 1096.997,830.9984 C1094.238,830.9984 1092.002,828.7614 1092.002,826.0024 C1092.002,824.6254 1092.56,823.3804 1093.46,822.4764 L1092.045,821.0614 C1090.779,822.3254 1089.992,824.0694 1089.992,826.0024 C1089.992,829.8714 1093.128,833.0084 1096.997,833.0084 C1098.93,833.0084 1100.674,832.2214 1101.939,830.9544 L1101.949,830.9654 L1105.668,827.2454 C1106.42,830.0104 1106.063,832.6624 1104.402,834.3624 L1099.042,839.8494 C1098.334,840.5724 1097.298,841.0054 1096.276,841.0054 C1096.235,841.0044 1092.85,840.7734 1089.47,838.6524 L1089.461,838.6724 C1089.307,838.5744 1089.134,838.5024 1088.937,838.5024 C1088.599,838.5024 1088.313,838.6824 1088.133,838.9424 L1088.097,838.9204 L1072.829,855.8314 C1072.104,856.5554 1071.104,857.0024 1070,857.0024 C1067.791,857.0024 1066,855.2124 1066,853.0024 C1066,851.8984 1066.448,850.8984 1067.171,850.1744 L1084.024,834.9664 L1083.996,834.9364 C1084.256,834.7564 1084.437,834.4684 1084.437,834.1274 C1084.437,833.9104 1084.354,833.7214 1084.237,833.5584 L1084.242,833.5524 C1081.347,829.7064 1081.245,826.8474 1083.739,824.1434 L1089.081,818.6774 C1090.435,817.2924 1092.205,817.0004 1093.453,817.0004 L1093.456,817.0004 C1094.212,817.0004 1094.99,817.1124 1095.772,817.3144 L1092.035,821.0504 L1093.449,822.4644 L1098.449,817.4644 L1098.441,817.4564 L1099.32,816.5784 C1097.371,815.5484 1095.346,815.0004 1093.456,815.0004 L1093.453,815.0004 C1091.225,815.0004 1089.188,815.7364 1087.696,817.2654 L1082.335,822.7494 C1078.81,826.5544 1079.742,830.4494 1082.132,833.9754 L1065.758,848.7604 C1064.672,849.8464 1064,851.3464 1064,853.0024 C1064,856.3164 1066.686,859.0024 1070,859.0024 C1071.657,859.0024 1073.157,858.3314 1074.243,857.2454 L1089.144,840.7744 C1092.535,842.6854 1095.766,843.0054 1096.269,843.0054 C1097.731,843.0054 1099.289,842.4254 1100.426,841.2634 L1105.786,835.7764 C1108.58,832.9164 1108.662,828.1044 1106.385,823.7164" id="Page-1"/>
        </g>
    </g>
</svg>