<?xml version="1.0"?>
<svg xmlns="http://www.w3.org/2000/svg" id="Layer_5" enable-background="new 0 0 64 64" height="512px" viewBox="0 0 64 64" width="512px" class=""><g><circle cx="30" cy="54" r="1" data-original="#000000" class="active-path" data-old_color="#000000" fill="#BEBBC8"/><path d="m30 59c2.757 0 5-2.243 5-5s-2.243-5-5-5-5 2.243-5 5 2.243 5 5 5zm0-8c1.654 0 3 1.346 3 3s-1.346 3-3 3-3-1.346-3-3 1.346-3 3-3z" data-original="#000000" class="active-path" data-old_color="#000000" fill="#BEBBC8"/><path d="m37 49h2v2h-2z" data-original="#000000" class="active-path" data-old_color="#000000" fill="#BEBBC8"/><path d="m58 15h2c1.654 0 3-1.346 3-3s-1.346-3-3-3h-2v-1c0-1.654-1.346-3-3-3s-3 1.346-3 3v1h-2c-1.654 0-3 1.346-3 3s1.346 3 3 3h2v6h-2.414l-5.711 5.711-2.04-3.326c-.903-1.471-2.536-2.385-4.263-2.385h-11.146c-1.727 0-3.359.914-4.263 2.385l-2.039 3.325-5.71-5.71h-2.414v-6h2c1.654 0 3-1.346 3-3s-1.346-3-3-3h-2v-1c0-1.654-1.346-3-3-3s-3 1.346-3 3v1h-2c-1.654 0-3 1.346-3 3s1.346 3 3 3h2v6h-5v5 1 1c0 1.654 1.346 3 3 3h6c1.392 0 2.555-.958 2.892-2.246l3.357 4.272-5.751 9.374-.009-.005c-.452-.258-.967-.395-1.488-.395-1.074 0-2.072.58-2.604 1.511-.399.695-.502 1.505-.291 2.279.195.716.646 1.313 1.263 1.713l-5.91 9.637c-.498.947-.597 2.03-.278 3.05.318 1.021 1.014 1.855 1.957 2.35.571.301 1.216.46 1.861.46 1.493 0 2.851-.82 3.506-2.077l5.853-9.406.154.088c.453.258.967.395 1.487.395 1.075 0 2.074-.58 2.604-1.511.399-.695.502-1.504.291-2.279-.207-.758-.694-1.389-1.367-1.787l4.087-6.568.9 1.145h2.486v4h-1c-1.654 0-3 1.346-3 3v12c0 1.654 1.346 3 3 3h16c1.654 0 3-1.346 3-3v-12c0-1.654-1.346-3-3-3h-1v-4h2.486l.898-1.143 4.087 6.568c-.673.399-1.16 1.029-1.366 1.786-.211.775-.108 1.584.289 2.276.533.933 1.532 1.513 2.607 1.513.521 0 1.034-.137 1.487-.396l.153-.087 5.815 9.341c.692 1.322 2.05 2.142 3.543 2.142.646 0 1.29-.159 1.859-.459.945-.496 1.641-1.331 1.958-2.35.319-1.021.221-2.104-.31-3.109l-5.876-9.579c.617-.401 1.068-.998 1.264-1.714.211-.774.108-1.584-.29-2.278-.533-.932-1.531-1.511-2.605-1.511-.521 0-1.036.137-1.487.396l-.011.006-5.751-9.374 3.358-4.274c.337 1.288 1.5 2.246 2.892 2.246h6c1.654 0 3-1.346 3-3v-1-1-5h-5zm-4-7c0-.551.448-1 1-1s1 .449 1 1v1h-2zm-5 4c0-.551.448-1 1-1h10c.552 0 1 .449 1 1s-.448 1-1 1h-10c-.552 0-1-.449-1-1zm5 3h2v6h-2zm-30.132 9.431c.542-.883 1.522-1.431 2.558-1.431h11.146c1.036 0 2.016.548 2.558 1.431l2.291 3.734-4.835 4.835h-11.172l-4.836-4.836zm-15.868-16.431c0-.551.448-1 1-1s1 .449 1 1v1h-2zm-5 4c0-.551.448-1 1-1h10c.552 0 1 .449 1 1s-.448 1-1 1h-10c-.552 0-1-.449-1-1zm5 3h2v6h-2zm2 14h-6c-.552 0-1-.449-1-1v-1h8v1c0 .551-.448 1-1 1zm-3.229 30.931c-.496.944-1.751 1.339-2.704.839-.471-.247-.818-.664-.978-1.175-.159-.51-.109-1.051.106-1.466l5.9-9.618 3.524 2.014zm10.096-10.434c-.263.459-.899.636-1.363.372l-7.001-4c-.231-.132-.397-.347-.468-.604s-.036-.527.097-.759c.178-.313.511-.506.869-.506.173 0 .344.045.495.132l7.001 4c.231.132.397.347.468.604s.036.528-.098.761zm-1.074-4.07-3.557-2.033 5.331-8.69 2.733 3.479zm25.207 2.573v12c0 .551-.448 1-1 1h-16c-.552 0-1-.449-1-1v-12c0-.551.448-1 1-1h16c.552 0 1 .449 1 1zm-4-3h-10v-4h10zm23.907 14.595c-.158.51-.506.927-.979 1.175-.946.498-2.19.132-2.738-.904l-5.813-9.341 3.525-2.014 5.867 9.56c.249.472.298 1.013.138 1.524zm-5.908-15.595c.358 0 .691.193.87.506.132.23.166.5.096.758s-.236.472-.469.605l-7 4c-.465.265-1.101.09-1.365-.374-.132-.23-.166-.5-.096-.757s.236-.472.469-.605l7.001-4c.15-.088.321-.133.494-.133zm-3.236-.605-3.557 2.033-4.507-7.243 2.733-3.479zm9.237-15.395c0 .551-.448 1-1 1h-6c-.552 0-1-.449-1-1v-1h8zm0-3h-9.486l-11 14h-17.028l-11-14h-9.486v-2h10.586l12 12h12.828l12-12h10.586z" data-original="#000000" class="active-path" data-old_color="#000000" fill="#BEBBC8"/><path d="m28 31h8c1.103 0 2-.897 2-2v-2c0-1.103-.897-2-2-2h-8c-1.103 0-2 .897-2 2v2c0 1.103.897 2 2 2zm0-4h8l.001 2h-8.001z" data-original="#000000" class="active-path" data-old_color="#000000" fill="#BEBBC8"/><path d="m29 16c0 1.654 1.346 3 3 3s3-1.346 3-3-1.346-3-3-3-3 1.346-3 3zm4 0c0 .551-.448 1-1 1s-1-.449-1-1 .448-1 1-1 1 .449 1 1z" data-original="#000000" class="active-path" data-old_color="#000000" fill="#BEBBC8"/><path d="m36.949 11.05c-1.322-1.322-3.079-2.05-4.949-2.05s-3.627.728-4.949 2.05l1.414 1.414c.944-.944 2.2-1.464 3.535-1.464s2.591.52 3.535 1.464z" data-original="#000000" class="active-path" data-old_color="#000000" fill="#BEBBC8"/><path d="m39.778 8.222c-4.289-4.289-11.268-4.289-15.557 0l1.414 1.414c3.51-3.509 9.219-3.509 12.729 0z" data-original="#000000" class="active-path" data-old_color="#000000" fill="#BEBBC8"/><path d="m32 3c3.473 0 6.737 1.353 9.192 3.808l1.414-1.414c-2.833-2.833-6.599-4.394-10.606-4.394s-7.773 1.561-10.606 4.394l1.414 1.414c2.455-2.455 5.719-3.808 9.192-3.808z" data-original="#000000" class="active-path" data-old_color="#000000" fill="#BEBBC8"/></g> </svg>
