<?xml version="1.0" encoding="UTF-8" standalone="no"?>
<svg width="114px" height="82px" viewBox="0 0 114 82" version="1.1" xmlns="http://www.w3.org/2000/svg" xmlns:xlink="http://www.w3.org/1999/xlink">
    <!-- Generator: Sketch 41 (35326) - http://www.bohemiancoding.com/sketch -->
    <title>game-controller</title>
    <desc>Created with Sketch.</desc>
    <defs></defs>
    <g id="Page-1" stroke="none" stroke-width="1" fill="none" fill-rule="evenodd">
        <g id="game-controller" fill="#BEBBC8">
            <polyline id="Fill-5" points="43.212 37.37 37.408 37.37 37.408 31.565 33.484 31.565 33.484 37.37 27.679 37.37 27.679 41.294 33.484 41.294 33.484 47.098 37.408 47.098 37.408 41.294 43.212 41.294 43.212 37.37"></polyline>
            <path d="M93.437,20.866 C91.826,20.866 90.521,19.56 90.521,17.95 C90.521,16.339 91.826,15.034 93.437,15.034 C95.047,15.034 96.353,16.339 96.353,17.95 C96.353,19.56 95.047,20.866 93.437,20.866 Z M85.522,12.951 C83.912,12.951 82.607,11.646 82.607,10.036 C82.607,8.425 83.912,7.12 85.522,7.12 C87.133,7.12 88.438,8.425 88.438,10.036 C88.438,11.646 87.133,12.951 85.522,12.951 Z M85.522,28.78 C83.912,28.78 82.607,27.474 82.607,25.864 C82.607,24.254 83.912,22.948 85.522,22.948 C87.133,22.948 88.438,24.254 88.438,25.864 C88.438,27.474 87.133,28.78 85.522,28.78 Z M77.608,20.866 C75.998,20.866 74.692,19.56 74.692,17.95 C74.692,16.339 75.998,15.034 77.608,15.034 C79.219,15.034 80.524,16.339 80.524,17.95 C80.524,19.56 79.219,20.866 77.608,20.866 Z M70.62,46.552 C66.632,46.552 63.4,43.319 63.4,39.332 C63.4,35.344 66.632,32.112 70.62,32.112 C74.607,32.112 77.84,35.344 77.84,39.332 C77.84,43.319 74.607,46.552 70.62,46.552 Z M57,32.205 C54.444,32.205 52.372,30.132 52.372,27.576 C52.372,25.021 54.444,22.948 57,22.948 C59.556,22.948 61.628,25.021 61.628,27.576 C61.628,30.132 59.556,32.205 57,32.205 Z M35.446,48.438 C30.417,48.438 26.34,44.361 26.34,39.332 C26.34,34.303 30.417,30.226 35.446,30.226 C40.475,30.226 44.552,34.303 44.552,39.332 C44.552,44.361 40.475,48.438 35.446,48.438 Z M18.784,20.356 C18.784,16.369 22.017,13.137 26.004,13.137 C29.992,13.137 33.224,16.369 33.224,20.356 C33.224,24.344 29.992,27.576 26.004,27.576 C22.017,27.576 18.784,24.344 18.784,20.356 Z M83.287,0.617 C71.091,0.617 70.067,10.203 62.828,10.203 C61.188,10.203 59.502,9.989 57.835,9.989 C57.556,9.989 57.278,10.006 57,10.021 C56.722,10.006 56.444,9.989 56.165,9.989 C54.498,9.989 52.812,10.203 51.172,10.203 C43.932,10.203 42.909,0.617 30.713,0.617 C11.862,0.617 0.226,40.704 0.226,65.318 C0.226,73.186 0.175,81.383 8.894,81.383 C23.266,81.383 28.089,63.294 38.104,61.825 C44.533,60.882 50.741,60.649 57,60.317 C63.259,60.649 69.467,60.882 75.896,61.825 C85.911,63.294 90.734,81.383 105.106,81.383 C113.825,81.383 113.774,73.186 113.774,65.318 C113.774,40.704 102.138,0.617 83.287,0.617 L83.287,0.617 Z" id="Fill-6"></path>
        </g>
    </g>
</svg>