<?xml version="1.0" encoding="UTF-8" standalone="no"?>
<svg width="173px" height="280px" viewBox="0 0 173 280" version="1.1" xmlns="http://www.w3.org/2000/svg" xmlns:xlink="http://www.w3.org/1999/xlink">
    <!-- Generator: Sketch 39.1 (31720) - http://www.bohemiancoding.com/sketch -->
    <title>Combined Shape</title>
    <desc>Created with Sketch.</desc>
    <defs></defs>
    <g id="Page-1" stroke="none" stroke-width="1" fill="none" fill-rule="evenodd">
        <g id="Desktop-HD" transform="translate(-1076.000000, -1178.000000)" fill="#BEBAC7">
            <path d="M1076,1183.00868 C1076,1180.24246 1078.23473,1178 1080.99098,1178 L1244.00902,1178 C1246.76546,1178 1249,1180.2334 1249,1183.00868 L1249,1452.99132 C1249,1455.75754 1246.76527,1458 1244.00902,1458 L1080.99098,1458 C1078.23454,1458 1076,1455.7666 1076,1452.99132 L1076,1183.00868 Z M1091,1201.9986 C1091,1199.23795 1093.233,1197 1095.99862,1197 L1230.00138,1197 C1232.76204,1197 1235,1199.24454 1235,1201.9986 L1235,1296.0014 C1235,1298.76205 1232.767,1301 1230.00138,1301 L1095.99862,1301 C1093.23796,1301 1091,1298.75546 1091,1296.0014 L1091,1201.9986 Z M1163,1436 C1195.5848,1436 1222,1409.5848 1222,1377 C1222,1344.4152 1195.5848,1318 1163,1318 C1130.4152,1318 1104,1344.4152 1104,1377 C1104,1409.5848 1130.4152,1436 1163,1436 Z" id="Combined-Shape"></path>
        </g>
    </g>
</svg>