<?xml version="1.0" encoding="UTF-8" standalone="no"?>
<svg width="78px" height="85px" viewBox="0 0 78 85" version="1.1" xmlns="http://www.w3.org/2000/svg" xmlns:xlink="http://www.w3.org/1999/xlink">
    <!-- Generator: Sketch 39.1 (31720) - http://www.bohemiancoding.com/sketch -->
    <title>Page 1</title>
    <desc>Created with Sketch.</desc>
    <defs></defs>
    <g id="Page-1" stroke="none" stroke-width="1" fill="none" fill-rule="evenodd">
        <g id="Desktop-HD" transform="translate(-1442.000000, -914.000000)" fill="#FF5E5B">
            <g id="Page-1" transform="translate(1442.000000, 914.000000)">
                <path d="M13.3340977,79.5216383 C11.7210279,81.4392553 8.84946977,81.6899362 6.92407442,80.0815532 C4.99867907,78.4713404 4.74514419,75.611383 6.36188837,73.6919362 C7.97679535,71.7779787 10.8483535,71.5254681 12.7719116,73.1356809 C14.697307,74.7458936 14.9490047,77.6040213 13.3340977,79.5216383 M30.8114698,54.627383 C30.7637023,54.5779787 30.7177721,54.5304043 30.6736791,54.4864894 C30.4421907,54.2467872 30.1941674,53.990617 29.9498186,53.7088298 C29.7091442,53.4252128 29.4923535,53.1415957 29.2902605,52.8744468 C29.2498419,52.8195532 29.207586,52.761 29.1616558,52.7042766 C28.9228186,52.786617 28.6692837,52.8250426 28.4212605,52.8030851 C27.9325628,52.7664894 27.4567256,52.5597234 27.1370512,52.1901064 L26.6924465,51.668617 C25.5937953,50.3914255 24.9195395,48.865383 24.6457953,47.2478511 L22.7369349,49.5515532 L3.53993488,72.3415532 C1.00458605,75.3515532 1.40326047,79.8802766 4.42363256,82.405383 L5.05746977,82.9323617 C8.08151628,85.4592979 12.6267721,85.062234 15.1621209,82.0540638 L32.6450047,61.3079362 L33.7932605,59.9484043 L31.0154,56.7115106 C30.5028186,56.1113404 30.4440279,55.2769574 30.8114698,54.627383" id="Fill-1"></path>
                <path d="M77.7297535,19.3289574 C77.505614,15.4058936 75.6867767,14.1396809 73.687893,16.5110851 C71.6890093,18.8824894 69.6460326,21.2630426 69.1426372,21.8028298 L68.6355674,22.2072128 C68.1266605,22.6152553 67.5865209,22.9665745 67.0261721,23.263 C66.015707,23.7899787 64.9354279,24.1394681 63.8239163,24.3096383 C62.381707,24.527383 60.8954047,24.4377234 59.4752419,24.0241915 C58.1671488,23.6472553 56.9123349,22.9921915 55.798986,22.0663191 C54.4798698,20.9611277 53.5098233,19.5942766 52.9127302,18.103 C52.4093349,16.8422766 52.1613116,15.497383 52.1888698,14.1543191 C52.2054047,13.1442766 52.3762651,12.134234 52.699614,11.1644468 C52.8943581,10.586234 53.1405442,10.0226596 53.4418465,9.48104255 L53.7541721,8.91929787 C54.1932651,8.34291489 56.1866372,5.92942553 58.1873581,3.55619149 C60.1862419,1.18478723 58.6135907,-0.377851064 54.7003349,0.0795957447 C54.7003349,0.0795957447 49.3669163,0.707212766 45.1192884,5.7482766 C42.473707,8.88819149 41.0480326,12.6447447 40.788986,16.4415532 C40.7136605,17.5760213 40.7375442,18.7086596 40.867986,19.8284894 L40.9984279,20.9904043 C41.3254512,22.2346596 41.0939628,24.7286596 40.4876837,26.5236809 C40.0908465,27.7038936 38.8433814,29.799 37.3203349,31.9526596 L33.4732186,36.5948298 C33.5393581,36.593 33.6054977,36.5765319 33.6716372,36.5765319 C36.3631488,36.5765319 38.9131953,37.745766 40.6603814,39.7841489 L41.104986,40.3056383 C41.6230791,40.9058085 41.6800326,41.7401915 41.3144279,42.389766 C41.3585209,42.4373404 41.4044512,42.4867447 41.446707,42.5288298 C41.6800326,42.7685319 41.9317302,43.0265319 42.1724047,43.3101489 C42.4149163,43.5901064 42.631707,43.877383 42.8319628,44.1445319 C42.8705442,44.195766 42.9164744,44.2543191 42.9605674,44.3128723 C43.1994047,44.2305319 43.4529395,44.1884468 43.7028,44.212234 C44.1878233,44.2506596 44.6691721,44.4574255 44.9851721,44.8270426 L45.7770093,45.7492553 L47.3606837,43.8737234 C49.7564047,41.1967447 52.6187767,38.6002766 54.0830326,37.8171277 C55.7365209,36.9351702 58.1873581,36.2965745 59.5321953,36.4008723 L60.7502651,36.3148723 C61.8709628,36.2361915 62.9843116,36.0605319 64.0737767,35.7860638 C67.7445209,34.8601915 71.1690791,32.8181489 73.7907767,29.7075106 C78.0347302,24.6682766 77.7297535,19.3289574 77.7297535,19.3289574" id="Fill-3"></path>
                <path d="M63.1289,78.9659319 C61.5011326,80.8725702 58.6277372,81.0994638 56.7133651,79.4764426 C54.8026674,77.8552511 54.5730163,74.9934638 56.2007837,73.0849957 C57.8303884,71.182017 60.7056209,70.9532936 62.6163186,72.5781447 C64.5270163,74.201166 64.7566674,77.0629532 63.1289,78.9659319 L63.1289,78.9659319 Z M43.5883419,46.0151234 C42.3353651,47.0818894 41.8466674,45.7461447 40.7755744,44.4982298 C39.7063186,43.2484851 38.4570163,42.5604851 39.709993,41.4937191 L39.261714,40.9722298 C36.6271558,37.8981872 31.9882023,37.5358894 28.9016907,40.1598043 C25.8151791,42.7873787 25.4495744,47.4057617 28.087807,50.4798043 L28.536086,51.0012936 C29.7890628,49.9363574 30.2759233,51.2702723 31.3470163,52.520017 C32.4181093,53.7679319 33.6674116,54.4559319 32.4125977,55.5226979 L54.0806442,80.7829106 C56.7152023,83.8569532 61.3541558,84.2192511 64.4406674,81.5953362 C67.5271791,78.9695915 67.8927837,74.3493787 65.2545512,71.2753362 L43.5883419,46.0151234 Z" id="Fill-5"></path>
                <path d="M9.24171395,21.0890298 L13.0594349,17.8411574 C13.9302721,17.1019234 13.946807,15.8686468 13.0961791,15.1056255 L5.99903953,8.72515745 C5.14841163,7.96213617 4.3731093,7.26315745 4.27573721,7.17532766 C4.17652791,7.08749787 4.01117907,7.08932766 3.90645814,7.17898723 C3.80173721,7.26864681 3.00255116,7.94749787 2.13355116,8.6885617 L1.78815581,8.98132766 C0.917318605,9.72239149 0.13834186,10.3847745 0.0556674419,10.4543064 C-0.0270069767,10.5256681 -0.0159837209,10.7013277 0.0795511628,10.8458809 C0.173248837,10.9922638 0.762993023,11.8925191 1.3894814,12.8513277 L6.52264419,20.6992851 C7.14545814,21.654434 8.36903953,21.8300936 9.24171395,21.0890298" id="Fill-7"></path>
                <path d="M10.2319698,22.6203787 L25.9162256,40.9091021 C26.403086,40.1314426 26.9726209,39.3940383 27.7093419,38.7700809 C28.4423884,38.1442936 29.2617837,37.6978255 30.1069,37.3428468 L14.4226442,19.0541234 C14.3620163,19.1126766 14.316086,19.1785489 14.2517837,19.2334426 L10.4340628,22.4794851 C10.3715977,22.5343787 10.2981093,22.5709745 10.2319698,22.6203787" id="Fill-9"></path>
            </g>
        </g>
    </g>
</svg>