<?xml version="1.0" encoding="UTF-8" standalone="no"?>
<svg width="44px" height="44px" viewBox="0 0 44 44" version="1.1" xmlns="http://www.w3.org/2000/svg" xmlns:xlink="http://www.w3.org/1999/xlink">
    <!-- Generator: Sketch 39.1 (31720) - http://www.bohemiancoding.com/sketch -->
    <title>repair-tool</title>
    <desc>Created with Sketch.</desc>
    <defs/>
    <g id="Page-1" stroke="none" stroke-width="1" fill="none" fill-rule="evenodd">
        <g id="repair-tool" fill="#646464">
            <g id="Page-1">
                <g id="Homepage">
                    <g id="Desktop-HD">
                        <path d="M5.293,37.2954 C5.112,37.4764 5,37.7274 5,38.0024 C5,38.5554 5.448,39.0024 6,39.0024 C6.552,39.0024 7,38.5554 7,38.0024 C7,37.4504 6.552,37.0024 6,37.0024 C5.724,37.0024 5.474,37.1144 5.293,37.2954 M42.385,8.7164 L41.543,9.5584 L41.535,9.5504 L36.535,14.5504 L36.524,14.5394 C35.621,15.4424 34.374,15.9984 32.997,15.9984 C30.238,15.9984 28.002,13.7614 28.002,11.0024 C28.002,9.6254 28.56,8.3804 29.46,7.4764 L28.045,6.0614 C26.779,7.3254 25.992,9.0694 25.992,11.0024 C25.992,14.8714 29.128,18.0084 32.997,18.0084 C34.93,18.0084 36.674,17.2214 37.939,15.9544 L37.949,15.9654 L41.668,12.2454 C42.42,15.0104 42.063,17.6624 40.402,19.3624 L35.042,24.8494 C34.334,25.5724 33.298,26.0054 32.276,26.0054 C32.235,26.0044 28.85,25.7734 25.47,23.6524 L25.461,23.6724 C25.307,23.5744 25.134,23.5024 24.937,23.5024 C24.599,23.5024 24.313,23.6824 24.133,23.9424 L24.097,23.9204 L8.829,40.8314 C8.104,41.5554 7.104,42.0024 6,42.0024 C3.791,42.0024 2,40.2124 2,38.0024 C2,36.8984 2.448,35.8984 3.171,35.1744 L20.024,19.9664 L19.996,19.9364 C20.256,19.7564 20.437,19.4684 20.437,19.1274 C20.437,18.9104 20.354,18.7214 20.237,18.5584 L20.242,18.5524 C17.347,14.7064 17.245,11.8474 19.739,9.1434 L25.081,3.6774 C26.435,2.2924 28.205,2.0004 29.453,2.0004 L29.456,2.0004 C30.212,2.0004 30.99,2.1124 31.772,2.3144 L28.035,6.0504 L29.449,7.4644 L34.449,2.4644 L34.441,2.4564 L35.32,1.5784 C33.371,0.5484 31.346,0.0004 29.456,0.0004 L29.453,0.0004 C27.225,0.0004 25.188,0.7364 23.696,2.2654 L18.335,7.7494 C14.81,11.5544 15.742,15.4494 18.132,18.9754 L1.758,33.7604 C0.672,34.8464 0,36.3464 0,38.0024 C0,41.3164 2.686,44.0024 6,44.0024 C7.657,44.0024 9.157,43.3314 10.243,42.2454 L25.144,25.7744 C28.535,27.6854 31.766,28.0054 32.269,28.0054 C33.731,28.0054 35.289,27.4254 36.426,26.2634 L41.786,20.7764 C44.58,17.9164 44.662,13.1044 42.385,8.7164" id="Page-1"/>
                    </g>
                </g>
            </g>
        </g>
    </g>
</svg>